<svg width="141" height="54" viewBox="0 0 141 54" fill="none" xmlns="http://www.w3.org/2000/svg">
<path d="M1.396 16L1.418 15.626L6.962 0.379999H8.986L14.53 15.626V16H13.188L11.12 10.17L10.614 11.138H4.476L2.738 16H1.396ZM4.828 10.148H11.12L7.974 1.282L4.828 10.148ZM23.8974 16V0.379999H29.0454C30.5414 0.379999 31.7294 0.768666 32.6094 1.546C33.504 2.32333 33.9514 3.36467 33.9514 4.67C33.9514 5.99 33.504 7.03867 32.6094 7.816C31.7294 8.59333 30.5414 8.982 29.0454 8.982H25.3494L25.7894 7.948H28.8254C29.94 7.948 30.8274 7.65467 31.4874 7.068C32.1474 6.46667 32.4774 5.67467 32.4774 4.692C32.4774 3.69467 32.1474 2.89533 31.4874 2.294C30.8274 1.69267 29.94 1.392 28.8254 1.392H25.3494V16H23.8974ZM44.0188 16V0.379999H45.4708V14.988H53.3468L52.9068 16H44.0188ZM62.8726 16V0.379999H64.3026V16H62.8726ZM75.2811 16V0.379999H76.7331V7.64H79.2411L84.3451 0.379999H85.6871V0.754L80.3411 8.102L85.5991 15.626V16H84.2131L79.2191 8.63H76.7331V16H75.2811ZM93.6456 16L93.6676 15.626L99.2116 0.379999H101.236L106.78 15.626V16H105.438L103.37 10.17L102.864 11.138H96.7256L94.9876 16H93.6456ZM97.0776 10.148H103.37L100.224 1.282L97.0776 10.148ZM120.393 16.264C119.366 16.264 118.406 16.1027 117.511 15.78C116.631 15.4427 115.89 14.9733 115.289 14.372V13.272H115.663C116.206 13.888 116.895 14.372 117.731 14.724C118.582 15.076 119.469 15.252 120.393 15.252C121.625 15.252 122.608 14.9587 123.341 14.372C124.089 13.7707 124.463 12.986 124.463 12.018C124.463 11.2847 124.206 10.6833 123.693 10.214C123.18 9.73 122.3 9.29733 121.053 8.916L119.161 8.322C117.944 7.94067 117.042 7.42733 116.455 6.782C115.868 6.122 115.575 5.29333 115.575 4.296C115.575 2.976 116.037 1.942 116.961 1.194C117.9 0.431333 119.176 0.0499995 120.789 0.0499995C121.757 0.0499995 122.63 0.203999 123.407 0.511999C124.199 0.819999 124.91 1.29667 125.541 1.942V3.042H125.167C124.023 1.722 122.564 1.062 120.789 1.062C119.645 1.062 118.728 1.34067 118.039 1.898C117.364 2.45533 117.027 3.196 117.027 4.12C117.027 4.85333 117.254 5.462 117.709 5.946C118.178 6.43 118.904 6.826 119.887 7.134L121.823 7.75C123.29 8.21933 124.338 8.76933 124.969 9.4C125.6 10.0307 125.915 10.8447 125.915 11.842C125.915 12.7367 125.688 13.514 125.233 14.174C124.778 14.834 124.133 15.3473 123.297 15.714C122.476 16.0807 121.508 16.264 120.393 16.264ZM136.054 16V0.379999H137.484V16H136.054Z" fill="#404041"/>
<g clip-path="url(#clip0_438_2)">
<path fill-rule="evenodd" clip-rule="evenodd" d="M0 33.5575V34.1149L2.01144 34.1363L4.02288 34.1576L4.04311 43.0788L4.06343 52H4.73983H5.41623L5.43656 43.0788L5.45678 34.1576L7.42842 34.1363L9.4 34.1149V33.5575V33H4.7H0V33.5575ZM27.0063 36.1733C27.0072 38.7228 27.0312 39.4473 27.1278 39.8586C27.4383 41.1783 28.3173 42.0719 29.7464 42.521C30.5608 42.777 32.2121 42.777 33.0264 42.521C34.4683 42.068 35.288 41.2255 35.6459 39.8288C35.7453 39.4407 35.7678 38.7677 35.7678 36.1765V33H35.0907H34.4135L34.4126 36.1334C34.4116 39.4579 34.3808 39.7917 34.0212 40.3747C33.7883 40.7524 33.2629 41.2126 32.8699 41.3832C32.2788 41.6397 31.4653 41.738 30.8121 41.6317C29.7379 41.457 28.9986 40.9469 28.6071 40.1104L28.3992 39.666L28.376 36.333L28.3527 33H27.679H27.0051L27.0063 36.1733ZM54.4616 33.0532C54.4324 33.0825 54.4084 35.22 54.4084 37.8033V42.5H56.9917C59.8835 42.5 60.5973 42.4347 61.3089 42.1052C62.3408 41.6272 62.8071 40.9308 62.8086 39.8655C62.8096 39.1716 62.6337 38.7006 62.2185 38.2844C61.906 37.9713 61.3293 37.6656 60.898 37.5845L60.5855 37.5257L61.0002 37.3903C61.6611 37.1744 62.0129 36.8961 62.2569 36.3962C62.4543 35.9919 62.4706 35.8897 62.4402 35.2489C62.4125 34.6708 62.3691 34.4816 62.1964 34.1863C61.8261 33.553 61.1878 33.2257 60.0419 33.0817C59.3284 32.9921 54.547 32.9677 54.4616 33.0532ZM82.9469 37.2111C81.4143 39.5273 78.5957 43.7819 76.6842 46.666C74.7726 49.5499 73.2085 51.93 73.2085 51.9548C73.2085 51.9796 73.5778 52 74.0287 52H74.8482L75.2492 51.3813C80.1005 43.8904 87.0697 33.0802 87.0697 33.0457C87.0697 33.0206 86.7693 33 86.4014 33H85.7339L82.9469 37.2111ZM87.149 37.75V42.5H87.8261H88.5032V37.75V33H87.8261H87.149V37.75ZM106.984 37.75V42.5L109.554 42.4984C112.289 42.4967 112.956 42.4432 113.716 42.1646C114.38 41.921 115.046 41.2567 115.223 40.6628C115.567 39.4998 115.173 38.4357 114.198 37.8996C113.937 37.7561 113.578 37.614 113.401 37.5836L113.079 37.5283L113.507 37.3876C114.112 37.1892 114.551 36.8532 114.773 36.4208C114.927 36.1208 114.963 35.929 114.963 35.4046C114.963 33.972 114.273 33.305 112.561 33.0825C112.232 33.0398 110.844 33.0038 109.474 33.0025L106.984 33V37.75ZM137.355 34.3372C136.873 35.0727 134.054 39.3306 131.092 43.7994C128.129 48.268 125.705 51.9413 125.705 51.9621C125.705 51.9829 126.078 52 126.533 52H127.36L133.483 42.5227L139.606 33.0454L139.627 37.7727L139.647 42.5H140.324H141V37.75V33H139.616H138.232L137.355 34.3372ZM60.4008 34.3318C60.9071 34.5661 61.0993 34.8919 61.0997 35.516C61.1001 36.1344 60.9144 36.4905 60.4549 36.7521C60.1085 36.9492 60.0781 36.952 57.9733 36.9764L55.8424 37.0011V35.5545V34.108L57.9334 34.1327C59.8856 34.1559 60.0496 34.1691 60.4008 34.3318ZM112.918 34.3571C113.433 34.616 113.612 34.9255 113.612 35.5546C113.612 36.1953 113.435 36.4914 112.884 36.7721L112.453 36.9916H110.396H108.339V35.5497V34.108L110.43 34.1327C112.478 34.1571 112.53 34.1617 112.918 34.3571ZM59.4609 38.1124C60.5917 38.2422 61.1409 38.587 61.3355 39.2892C61.582 40.179 61.2291 40.9103 60.3996 41.2285C59.9873 41.3866 59.7536 41.4066 57.8936 41.4432L55.8424 41.4837V39.7566V38.0294L57.2962 38.0301C58.0957 38.0304 59.0699 38.0675 59.4609 38.1124ZM111.95 38.1115C113.036 38.2363 113.474 38.4763 113.765 39.1071C114.028 39.6783 113.914 40.4397 113.5 40.8815C113.407 40.9805 113.131 41.1382 112.887 41.2321C112.486 41.3857 112.236 41.4069 110.391 41.4432L108.339 41.4837V39.8098C108.339 38.8891 108.363 38.1119 108.392 38.0827C108.475 37.9996 111.166 38.0214 111.95 38.1115Z" fill="#404041"/>
</g>
<rect width="141" height="5" transform="translate(0 20)" fill="#69252C"/>
<rect y="20" width="20" height="5" fill="#CFB57E"/>
<path d="M11.2768 22.0862H10.7163L11.6505 23.2759H12.2734L11.2768 22.0862Z" fill="white"/>
<path d="M2.86851 21L1 23.2759H1.62284L3.49135 21H2.86851Z" fill="white"/>
<path d="M3.17993 22.0862H2.61938V23.2759H3.61592L5.48443 21H4.86159L3.17993 23.0172V22.0862Z" fill="white"/>
<path d="M9.28374 23.0172V22.0862H8.72318V23.2759H9.71972L11.5882 21H10.9654L9.28374 23.0172Z" fill="white"/>
<path d="M15.9481 23.0172V22.0862H15.3875V23.2759H16.4464L18.3149 21H17.692L15.9481 23.0172Z" fill="white"/>
<path d="M18.0035 22.0862L19 23.2759H18.3772L17.4429 22.0862H18.0035Z" fill="white"/>
<path d="M3.61592 23.4828H2.61938V24H3.61592V23.4828Z" fill="white"/>
<defs>
<clipPath id="clip0_438_2">
<rect width="141" height="19" fill="white" transform="translate(0 33)"/>
</clipPath>
</defs>
</svg>
