<svg width="103" height="59" viewBox="0 0 103 59" fill="none" xmlns="http://www.w3.org/2000/svg">
<g clip-path="url(#clip0_408_2)">
<g clip-path="url(#clip1_408_2)">
<path fill-rule="evenodd" clip-rule="evenodd" d="M0 45.4108V45.8215L1.46935 45.8372L2.9387 45.8529L2.95348 52.4265L2.96832 59H3.46243H3.95654L3.97138 52.4265L3.98616 45.8529L5.42644 45.8372L6.86667 45.8215V45.4108V45H3.43333H0V45.4108ZM19.728 47.3382C19.7287 49.2168 19.7462 49.7506 19.8168 50.0537C20.0436 51.0261 20.6857 51.6846 21.7297 52.0155C22.3246 52.2041 23.5308 52.2041 24.1257 52.0155C25.179 51.6817 25.7777 51.0609 26.0392 50.0318C26.1118 49.7458 26.1283 49.2499 26.1283 47.3406V45H25.6336H25.139L25.1383 47.3088C25.1376 49.7585 25.115 50.0044 24.8524 50.434C24.6822 50.7123 24.2984 51.0514 24.0113 51.1771C23.5795 51.3661 22.9853 51.4385 22.5081 51.3602C21.7235 51.2315 21.1834 50.8556 20.8974 50.2392L20.7455 49.9118L20.7285 47.4559L20.7115 45H20.2194H19.7271L19.728 47.3382ZM39.784 45.0392C39.7627 45.0608 39.7452 46.6358 39.7452 48.5392V52H41.6322C43.7447 52 44.2661 51.9519 44.786 51.7091C45.5397 51.3569 45.8804 50.8438 45.8815 50.0588C45.8822 49.5475 45.7537 49.2004 45.4504 48.8938C45.2221 48.6631 44.8009 48.4378 44.4858 48.3781L44.2575 48.3348L44.5604 48.2349C45.0432 48.0759 45.3002 47.8708 45.4785 47.5025C45.6227 47.2045 45.6346 47.1292 45.6123 46.6571C45.5921 46.2311 45.5604 46.0917 45.4343 45.8741C45.1637 45.4075 44.6974 45.1663 43.8604 45.0602C43.3392 44.9942 39.8464 44.9762 39.784 45.0392ZM60.5924 48.1029C59.4728 49.8096 57.4139 52.9446 56.0175 55.0697C54.6211 57.1947 53.4785 58.9484 53.4785 58.9667C53.4785 58.985 53.7483 59 54.0777 59H54.6764L54.9693 58.5441C58.5131 53.0245 63.6041 45.0591 63.6041 45.0336C63.6041 45.0152 63.3847 45 63.1159 45H62.6283L60.5924 48.1029ZM63.662 48.5V52H64.1567H64.6513V48.5V45H64.1567H63.662V48.5ZM78.1518 48.5V52L80.0288 51.9988C82.0266 51.9976 82.5143 51.9582 83.069 51.7528C83.5545 51.5734 84.041 51.0839 84.1698 50.6463C84.4214 49.7894 84.1333 49.0052 83.4209 48.6102C83.2304 48.5045 82.9686 48.3998 82.8394 48.3774L82.6038 48.3366L82.9166 48.2329C83.3581 48.0868 83.6795 47.8392 83.8415 47.5206C83.9541 47.2995 83.9804 47.1582 83.9804 46.7718C83.9804 45.7162 83.4761 45.2248 82.2256 45.0608C81.9853 45.0294 80.9709 45.0028 79.9704 45.0018L78.1518 45V48.5ZM100.338 45.9853C99.9851 46.5272 97.9262 49.6646 95.7621 52.9574C93.598 56.2501 91.8272 58.9568 91.8272 58.9721C91.8272 58.9874 92.0992 59 92.4318 59H93.0364L97.5088 52.0167L101.982 45.0335L101.997 48.5168L102.012 52H102.506H103V48.5V45H101.989H100.978L100.338 45.9853ZM44.1226 45.9813C44.4924 46.1539 44.6328 46.3941 44.6331 46.8539C44.6334 47.3096 44.4977 47.5719 44.1621 47.7647C43.9091 47.9099 43.8868 47.912 42.3493 47.93L40.7927 47.9482V46.8823V45.8164L42.3202 45.8346C43.7462 45.8517 43.866 45.8615 44.1226 45.9813ZM82.4864 46C82.8624 46.1908 82.9933 46.4188 82.9933 46.8824C82.9933 47.3544 82.864 47.5726 82.4612 47.7794L82.1463 47.9412H80.6436H79.141V46.8788V45.8164L80.6688 45.8346C82.1645 45.8526 82.2026 45.856 82.4864 46ZM43.436 48.767C44.262 48.8626 44.6632 49.1167 44.8054 49.6342C44.9855 50.2898 44.7276 50.8286 44.1217 51.0631C43.8205 51.1796 43.6498 51.1944 42.2911 51.2213L40.7927 51.2512V49.9785V48.7059L41.8546 48.7064C42.4387 48.7066 43.1503 48.7339 43.436 48.767ZM81.7788 48.7664C82.5727 48.8583 82.8925 49.0352 83.1049 49.5C83.297 49.9209 83.2138 50.4819 82.9112 50.8074C82.8436 50.8804 82.6419 50.9966 82.4633 51.0658C82.1709 51.179 81.988 51.1946 80.6399 51.2213L79.141 51.2512V50.0178C79.141 49.3394 79.1587 48.7666 79.1802 48.7451C79.2408 48.6839 81.2064 48.7 81.7788 48.7664Z" fill="#404041"/>
</g>
<path d="M4.416 36V1.92H15.648C18.912 1.92 21.504 2.768 23.424 4.464C25.376 6.16 26.352 8.432 26.352 11.28C26.352 14.16 25.376 16.448 23.424 18.144C21.504 19.84 18.912 20.688 15.648 20.688H7.584L8.544 18.432H15.168C17.6 18.432 19.536 17.792 20.976 16.512C22.416 15.2 23.136 13.472 23.136 11.328C23.136 9.152 22.416 7.408 20.976 6.096C19.536 4.784 17.6 4.128 15.168 4.128H7.584V36H4.416ZM33.1973 36V1.92H44.4293C47.6933 1.92 50.2853 2.768 52.2053 4.464C54.1573 6.16 55.1333 8.432 55.1333 11.28C55.1333 14.16 54.1573 16.448 52.2053 18.144C50.2853 19.84 47.6933 20.688 44.4293 20.688H36.3653L37.3253 18.432H43.9493C46.3813 18.432 48.3173 17.792 49.7573 16.512C51.1973 15.2 51.9173 13.472 51.9173 11.328C51.9173 9.152 51.1973 7.408 49.7573 6.096C48.3173 4.784 46.3813 4.128 43.9493 4.128H36.3653V36H33.1973ZM61.9785 36V1.92H65.0985V36H61.9785ZM73.9316 36V1.92H84.0596C88.9556 1.92 92.6676 3.264 95.1956 5.952C97.7556 8.64 99.0356 12.416 99.0356 17.28V20.544C99.0356 25.376 97.7556 29.168 95.1956 31.92C92.6676 34.64 88.9556 36 84.0596 36H73.9316ZM77.0996 33.792H84.0596C87.9316 33.792 90.8596 32.752 92.8436 30.672C94.8276 28.56 95.8196 25.664 95.8196 21.984V15.792C95.8196 12.112 94.8276 9.248 92.8436 7.2C90.8596 5.152 87.9316 4.128 84.0596 4.128H77.0996V33.792Z" fill="#404041"/>
</g>
<defs>
<clipPath id="clip0_408_2">
<rect width="103" height="59" fill="white"/>
</clipPath>
<clipPath id="clip1_408_2">
<rect width="103" height="14" fill="white" transform="translate(0 45)"/>
</clipPath>
</defs>
</svg>
