<svg width="199" height="27" viewBox="0 0 199 27" fill="none" xmlns="http://www.w3.org/2000/svg">
<path fill-rule="evenodd" clip-rule="evenodd" d="M0 0.792189V1.58438L2.83884 1.61467L5.67769 1.64495L5.70623 14.3225L5.73491 27H6.68955H7.64418L7.67287 14.3225L7.70141 1.64495L10.4841 1.61467L13.2667 1.58427V0.792189V0H6.63333H0V0.792189ZM38.1152 4.50946C38.1166 8.13244 38.1504 9.16196 38.2868 9.74643C38.725 11.6218 39.9655 12.8917 41.9826 13.5299C43.1319 13.8936 45.4625 13.8936 46.6117 13.5299C48.6468 12.8861 49.8036 11.6889 50.3088 9.70412C50.4491 9.15254 50.4808 8.1962 50.4808 4.514V0H49.5252H48.5695L48.5681 4.45274C48.5668 9.17705 48.5233 9.65137 48.0158 10.4798C47.687 11.0165 46.9454 11.6705 46.3908 11.9129C45.5566 12.2775 44.4085 12.4171 43.4866 12.2661C41.9706 12.0178 40.9272 11.293 40.3746 10.1042L40.0811 9.47269L40.0483 4.73634L40.0155 0H39.0646H38.1136L38.1152 4.50946ZM76.8643 0.0756681C76.823 0.117189 76.7892 3.15469 76.7892 6.82567V13.5H80.4351C84.5164 13.5 85.5239 13.4072 86.5282 12.9389C87.9845 12.2597 88.6427 11.2701 88.6448 9.75631C88.6461 8.77012 88.398 8.1008 87.8119 7.50941C87.371 7.06447 86.557 6.63009 85.9483 6.51483L85.5072 6.43133L86.0925 6.23882C87.0252 5.93206 87.5218 5.53659 87.8662 4.8262C88.1448 4.2516 88.1678 4.10638 88.1248 3.19587C88.0857 2.3743 88.0245 2.10543 87.7808 1.6858C87.2581 0.785836 86.3572 0.32071 84.74 0.116169C83.733 -0.0112311 76.9848 -0.0459454 76.8643 0.0756681ZM117.067 5.98424C114.904 9.27563 110.926 15.3217 108.228 19.4201C105.53 23.5184 103.323 26.9005 103.323 26.9358C103.323 26.971 103.844 27 104.48 27H105.637L106.203 26.1208C113.05 15.4759 122.886 0.114013 122.886 0.0648908C122.886 0.0292689 122.462 0 121.942 0H121L117.067 5.98424ZM122.998 6.75V13.5H123.953H124.909V6.75V0H123.953H122.998V6.75ZM150.992 6.75V13.5L154.619 13.4977C158.479 13.4953 159.421 13.4193 160.492 13.0233C161.43 12.6772 162.371 11.7332 162.619 10.8893C163.105 9.23661 162.549 7.72438 161.172 6.96259C160.804 6.75873 160.299 6.55669 160.049 6.51347L159.594 6.43496L160.198 6.23495C161.051 5.95304 161.672 5.47556 161.985 4.86113C162.203 4.4348 162.253 4.16231 162.253 3.41709C162.253 1.38131 161.279 0.433475 158.863 0.117303C158.399 0.0566092 156.439 0.00544538 154.506 0.0035168L150.992 0V6.75ZM193.856 1.90021C193.175 2.94538 189.197 8.99611 185.016 15.3465C180.835 21.6967 177.414 26.9166 177.414 26.9462C177.414 26.9757 177.939 27 178.582 27H179.75L188.391 13.5323L197.033 0.0645505L197.062 6.78233L197.091 13.5H198.045H199V6.75V0H197.046H195.094L193.856 1.90021ZM85.2465 1.89249C85.9611 2.22545 86.2323 2.68855 86.2329 3.57534C86.2334 4.45421 85.9713 4.96017 85.3228 5.33193C84.834 5.61203 84.7911 5.616 81.8205 5.65072L78.813 5.68576V3.63014V1.57451L81.7642 1.60968C84.5194 1.64258 84.7508 1.6614 85.2465 1.89249ZM159.367 1.92857C160.093 2.29647 160.346 2.7363 160.346 3.63025C160.346 4.54065 160.097 4.96142 159.318 5.36029L158.71 5.67226H155.807H152.904V3.62333V1.57451L155.855 1.60968C158.745 1.64428 158.819 1.65085 159.367 1.92857ZM83.9201 7.26493C85.5159 7.44939 86.2911 7.93936 86.5657 8.93734C86.9137 10.2017 86.4155 11.2409 85.2449 11.6931C84.663 11.9178 84.3331 11.9463 81.7081 11.9983L78.813 12.0558V9.60145V7.14706L80.8648 7.14797C81.9933 7.14853 83.3682 7.20117 83.9201 7.26493ZM158 7.26369C159.534 7.44099 160.151 7.78213 160.562 8.67857C160.933 9.49027 160.772 10.5722 160.188 11.2C160.057 11.3407 159.667 11.5648 159.322 11.6983C158.757 11.9166 158.404 11.9467 155.799 11.9983L152.904 12.0558V9.67712C152.904 8.36875 152.938 7.26425 152.979 7.22273C153.096 7.10475 156.894 7.13572 158 7.26369Z" fill="#404041"/>
</svg>
